<svg width="29" height="24" fill="none" xmlns="http://www.w3.org/2000/svg"><path d="M6.126 11.05c1.882 0 3.363.561 4.444 1.682 1.121 1.082 1.682 2.563 1.682 4.445 0 1.882-.56 3.383-1.682 4.504-1.08 1.121-2.562 1.682-4.444 1.682-1.882 0-3.383-.56-4.504-1.682C.54 20.561 0 19.06 0 17.177c0-2.883.5-5.425 1.501-7.628 1.041-2.202 2.183-4.004 3.424-5.405A22.954 22.954 0 019.85 0l1.2 1.802c-.8.8-1.54 1.661-2.221 2.582-.56.801-1.121 1.762-1.682 2.883-.52 1.121-.86 2.382-1.021 3.784zm16.636 0c1.882 0 3.363.561 4.444 1.682 1.122 1.082 1.682 2.563 1.682 4.445 0 1.882-.56 3.383-1.682 4.504-1.08 1.121-2.562 1.682-4.444 1.682-1.882 0-3.383-.56-4.504-1.682-1.121-1.12-1.682-2.622-1.682-4.504 0-2.883.5-5.425 1.502-7.628 1.04-2.202 2.182-4.004 3.423-5.405A22.952 22.952 0 0126.426 0l1.201 1.802c-.8.8-1.521 1.661-2.162 2.582-.56.801-1.121 1.762-1.682 2.883-.52 1.121-.86 2.382-1.02 3.784z" fill="#D0D0D0"/></svg>