<svg width="145" height="24" fill="none" xmlns="http://www.w3.org/2000/svg"><g clip-path="url(#clip0)"><path d="M93.865.25a11.42 11.42 0 100 22.837 11.42 11.42 0 100-22.837z" fill="#38D090"/><path d="M5.662 6.121c-3.946 0-5.66.174-5.66.438v11.09a3.69 3.69 0 001.511.237c.498.03.996-.043 1.464-.214V8.885a11.7 11.7 0 012.7-.18 8.85 8.85 0 012.544.186v8.771a4.4 4.4 0 001.606.231 2.55 2.55 0 001.386-.236V6.515c.005-.268-1.599-.394-5.551-.394m27.931-.319a6.17 6.17 0 00-4.48 1.8 5.859 5.859 0 00-1.835 4.351 6.106 6.106 0 001.8 4.513 6.036 6.036 0 004.466 1.82 6.293 6.293 0 004.541-1.784 5.97 5.97 0 001.838-4.452 5.998 5.998 0 00-1.826-4.44 6.2 6.2 0 00-4.504-1.808zm2.391 8.824a3.113 3.113 0 01-2.392.96 3.118 3.118 0 01-2.392-.972 3.7 3.7 0 01-.883-2.612c-.035-.92.29-1.817.908-2.5a3.09 3.09 0 012.368-.975 3.12 3.12 0 012.391.975c.62.705.94 1.623.894 2.56.045.94-.277 1.86-.9 2.564m25.176-8.824a6.17 6.17 0 00-4.48 1.8 5.86 5.86 0 00-1.835 4.351 6.106 6.106 0 001.8 4.513 6.035 6.035 0 004.466 1.82 6.293 6.293 0 004.541-1.784 5.973 5.973 0 001.838-4.452 6 6 0 00-1.826-4.44 6.2 6.2 0 00-4.504-1.808zm2.391 8.824a3.115 3.115 0 01-2.392.96 3.119 3.119 0 01-2.392-.972 3.7 3.7 0 01-.883-2.612c-.035-.92.29-1.817.908-2.5a3.09 3.09 0 012.368-.975 3.12 3.12 0 012.391.975c.62.705.94 1.623.894 2.56.046.94-.277 1.86-.9 2.564M47.854 5.813a4.839 4.839 0 00-3.282 1.024c-.3.294-.392.343-.234-.165a5.042 5.042 0 013.279-2.971 20.84 20.84 0 014.222-.911c.271-.043.351-.832.351-1.388 0-.556-.073-1.418-.37-1.4a21.55 21.55 0 00-4.723.851 8.736 8.736 0 00-4.238 2.835c-1.301 1.819-1.809 4.039-1.809 6.962 0 1.621.057 4.221 2 6.038a6.148 6.148 0 004.33 1.566 6.131 6.131 0 006.325-6.29 6.3 6.3 0 00-1.719-4.474 5.565 5.565 0 00-4.132-1.677zm1.915 8.811a3.112 3.112 0 01-2.392.96 3.116 3.116 0 01-2.392-.972 3.7 3.7 0 01-.883-2.605 3.529 3.529 0 01.906-2.51 3.092 3.092 0 012.369-.972 3.118 3.118 0 012.392.972c.623.705.946 1.625.9 2.564.046.94-.277 1.86-.9 2.564m29.776 2.643c-1.969-2.389-4.894-5.96-4.894-5.96s.308-.347.613-.66c1.809-1.857 3.727-3.818 3.956-4.053.229-.235.237-.449-1.505-.449s-1.757.15-1.978.352c-.221.203-1.476 1.432-3.081 3.14-.221.235-.526.53-.526.53V6.342s-.214-.2-1.449-.2-1.5.2-1.5.2v11.301s.156.25 1.556.25c1.4 0 1.392-.248 1.392-.248v-3.5c0-.152.009-.308.009-.308l.219-.238c.181-.195.378-.393.378-.393l.5.61c1.344 1.631 2.997 3.646 3.121 3.794.124.148.115.283 1.825.283 1.762 0 1.683-.233 1.364-.625zM20.336 5.815a5.481 5.481 0 00-3.684 1.246c-.5.44-.424.355-.417-.086l-.016-.591s-.103-.256-1.411-.256-1.5.252-1.5.252v16.49c.473.162.972.235 1.471.216a4.2 4.2 0 001.465-.2v-5.223c0-.737.018-.785.481-.418a6.324 6.324 0 003.6 1.04 5.906 5.906 0 004.176-1.68 6.58 6.58 0 001.751-4.52 6.568 6.568 0 00-1.765-4.551 5.663 5.663 0 00-4.151-1.72zm1.972 8.809a3.111 3.111 0 01-2.392.96 3.113 3.113 0 01-2.392-.97 3.7 3.7 0 01-.884-2.61 3.525 3.525 0 01.906-2.507 3.09 3.09 0 012.368-.972 3.116 3.116 0 012.394.972c.623.705.946 1.625.9 2.564.046.94-.277 1.86-.9 2.564m95.677-8.26v3.9c-.753.095-1.513.128-2.271.1a16.17 16.17 0 01-2.4-.1v-3.9a2.836 2.836 0 00-1.485-.223 3.42 3.42 0 00-1.555.223V17.69s.275.221 1.568.221c1.293 0 1.474-.234 1.474-.234v-4.495a14.98 14.98 0 012.358-.09 14.58 14.58 0 012.311.085v4.5c.52.188 1.073.266 1.624.231 1.157 0 1.436-.228 1.436-.228V6.38a3.361 3.361 0 00-1.5-.237 3.93 3.93 0 00-1.56.223zm26.226-.242s-.437-.026-4.758-.026-4.891.018-4.891.018a4.378 4.378 0 00-.149 1.367 4.13 4.13 0 00.149 1.34s1.666.012 3.266.012h.019v8.822a2.866 2.866 0 001.528.256 3.067 3.067 0 001.558-.251V8.838h-.009.009l3.278-.015c.118-.434.168-.884.149-1.333a4.736 4.736 0 00-.149-1.367zm-15.86-.308a5.53 5.53 0 00-4.154 1.708 6.52 6.52 0 00-1.556 4.53 6.35 6.35 0 001.61 4.532 5.572 5.572 0 004.254 1.7 7.999 7.999 0 001.841-.194 7.464 7.464 0 003-1.675c.521-.5.4-.83-.4-1.363-.695-.46-1.027-.53-1.286-.357a8.429 8.429 0 01-1.166.649 4.432 4.432 0 01-1.836.325 3.386 3.386 0 01-2.34-.794 2.475 2.475 0 01-.637-1.035c-.13-.552-.1-.6-.1-.6h8.331s.009-1.076.009-1.772c0-2.145-1.08-5.654-5.57-5.654zm-2.683 5.024s.023-.2.051-.51c.025-.208.103-.406.225-.577.163-.298.373-.568.62-.8.235-.216.506-.39.8-.514.343-.113.701-.17 1.062-.168a2.599 2.599 0 012.125.91 2.86 2.86 0 01.575 1.659h-5.462" fill="#fff"/></g><defs><clipPath id="clip0"><path fill="#fff" d="M0 0h144.359v23.087H0z"/></clipPath></defs></svg>