<svg width="60" height="60" fill="none" xmlns="http://www.w3.org/2000/svg"><circle cx="30" cy="30" r="29.5" stroke="#F5F5F5"/><g clip-path="url(#clip0)"><path d="M24.385 30.861h2.646v10.897a.39.39 0 00.39.389h4.488a.39.39 0 00.389-.39V30.913h3.043a.39.39 0 00.387-.345l.462-4.012a.391.391 0 00-.387-.434h-3.505v-2.514c0-.758.408-1.142 1.213-1.142h2.292a.39.39 0 00.39-.39v-3.683a.391.391 0 00-.388-.392h-3.303a6.052 6.052 0 00-3.958 1.492 4.15 4.15 0 00-1.38 3.689v2.94H24.39a.39.39 0 00-.389.39v3.96a.39.39 0 00.385.39z" fill="#385C8E"/></g><defs><clipPath id="clip0"><path fill="#fff" transform="translate(24 18)" d="M0 0h12.198v24.148H0z"/></clipPath></defs></svg>