<svg width="60" height="60" fill="none" xmlns="http://www.w3.org/2000/svg"><circle cx="30" cy="30" r="29.5" stroke="#F5F5F5"/><circle cx="30" cy="30" r="29.5" fill="#F5F5F5" stroke="#F5F5F5"/><g clip-path="url(#clip0)"><path d="M35.123 16.5H24.965a8.466 8.466 0 00-8.465 8.465v10.158a8.466 8.466 0 008.465 8.464h10.158a8.466 8.466 0 008.464-8.465V24.966a8.466 8.466 0 00-8.465-8.465zm5.925 18.623a5.931 5.931 0 01-5.925 5.925H24.965a5.931 5.931 0 01-5.925-5.925V24.965a5.931 5.931 0 015.925-5.925h10.158a5.931 5.931 0 015.925 5.925v10.158z" fill="#C60083"/><path d="M30.044 23.272a6.772 6.772 0 100 13.543 6.772 6.772 0 000-13.543zm0 11.004a4.232 4.232 0 110-8.465 4.232 4.232 0 010 8.465zm7.279-9.588a1.925 1.925 0 100-3.849 1.925 1.925 0 000 3.85z" fill="#C60083"/><path d="M35.123 16.5H24.965a8.466 8.466 0 00-8.465 8.465v10.158a8.466 8.466 0 008.465 8.464h10.158a8.466 8.466 0 008.464-8.465V24.966a8.466 8.466 0 00-8.465-8.465zm5.925 18.623a5.931 5.931 0 01-5.925 5.925H24.965a5.931 5.931 0 01-5.925-5.925V24.965a5.931 5.931 0 015.925-5.925h10.158a5.931 5.931 0 015.925 5.925v10.158z" fill="#38D090"/><path d="M30.044 23.272a6.772 6.772 0 100 13.543 6.772 6.772 0 000-13.543zm0 11.004a4.232 4.232 0 110-8.465 4.232 4.232 0 010 8.465zm7.279-9.588a1.925 1.925 0 100-3.849 1.925 1.925 0 000 3.85z" fill="#38D090"/></g><defs><clipPath id="clip0"><path fill="#fff" transform="translate(16.5 16.5)" d="M0 0h27.088v27.087H0z"/></clipPath></defs></svg>