<svg width="60" height="60" fill="none" xmlns="http://www.w3.org/2000/svg"><circle cx="30" cy="30" r="29.5" stroke="#F5F5F5"/><g clip-path="url(#clip0)"><path d="M17.454 29.731l5.925 2.211 2.293 7.374a.698.698 0 001.108.333l3.3-2.691a.985.985 0 011.2-.034l5.955 4.323a.697.697 0 001.093-.422L42.69 19.84a.698.698 0 00-.934-.793L17.45 28.426a.698.698 0 00.004 1.305zm7.846 1.034l11.575-7.129a.202.202 0 01.244.32l-9.553 8.88a1.98 1.98 0 00-.613 1.185l-.326 2.412a.3.3 0 01-.584.042l-1.252-4.398a1.166 1.166 0 01.51-1.311l-.001-.001z" fill="#1CA1F2"/></g><defs><clipPath id="clip0"><path fill="#fff" transform="translate(17 19)" d="M0 0h25.705v22.381H0z"/></clipPath></defs></svg>