<svg width="60" height="60" fill="none" xmlns="http://www.w3.org/2000/svg"><circle cx="30" cy="30" r="29.5" stroke="#F5F5F5"/><g clip-path="url(#clip0)"><path d="M30.768 17.808a13.168 13.168 0 00-5.077 1.01l-2.75-2.75a.232.232 0 00-.285-.033 20.496 20.496 0 00-6.622 6.62.231.231 0 00.033.287l2.636 2.634a13.132 13.132 0 00-1.189 5.484 13.253 13.253 0 1013.254-13.252zm5.25 11.992l.927 3.907.882 4.118-4.116-.885-3.904-.915L19.262 25.48a12.795 12.795 0 016.323-6.112L36.018 29.8z" fill="#1CA1F2"/></g><defs><clipPath id="clip0"><path fill="#fff" transform="translate(16 16)" d="M0 0h28.021v28.313H0z"/></clipPath></defs></svg>