<svg width="60" height="60" fill="none" xmlns="http://www.w3.org/2000/svg"><circle cx="30" cy="30" r="29.5" stroke="#F5F5F5"/><g clip-path="url(#clip0)"><path d="M40.703 22.195a8.802 8.802 0 01-1.125.41 4.968 4.968 0 001.011-1.779.375.375 0 00-.548-.436 8.84 8.84 0 01-2.611 1.03 4.989 4.989 0 00-8.435 4.209 12.766 12.766 0 01-8.763-4.65.375.375 0 00-.614.048 4.994 4.994 0 00.511 5.74 4.29 4.29 0 01-.667-.3.375.375 0 00-.557.318v.067a5.003 5.003 0 002.441 4.288 4.255 4.255 0 01-.379-.054.376.376 0 00-.427.482 4.984 4.984 0 003.654 3.343 8.822 8.822 0 01-4.716 1.346c-.353 0-.706-.02-1.056-.062a.375.375 0 00-.247.688 13.449 13.449 0 007.276 2.131 12.939 12.939 0 0010.023-4.403 13.955 13.955 0 003.474-9.094c0-.136 0-.275-.006-.412a9.695 9.695 0 002.231-2.364.375.375 0 00-.463-.551l-.007.005z" fill="#1CA1F2"/></g><defs><clipPath id="clip0"><path fill="#fff" transform="translate(18 20)" d="M0 0h23.23v19.019H0z"/></clipPath></defs></svg>