<svg width="60" height="60" fill="none" xmlns="http://www.w3.org/2000/svg"><circle cx="30" cy="30" r="29.5" stroke="#F5F5F5"/><g clip-path="url(#clip0)"><path d="M40.111 31.662c.921.837 1.799 1.72 2.63 2.645.362.418.678.873.942 1.359.363.702.035 1.474-.595 1.515h-3.912a3.019 3.019 0 01-2.49-1.012c-.542-.552-1.044-1.139-1.565-1.71a3.703 3.703 0 00-.704-.625.818.818 0 00-1.303.317 4.112 4.112 0 00-.411 1.825c-.042.921-.32 1.163-1.246 1.205a10.004 10.004 0 01-5.598-1.2 12.368 12.368 0 01-3.767-3.525 47.481 47.481 0 01-4.956-8.842c-.313-.697-.084-1.07.684-1.084a101.68 101.68 0 013.83 0 1.125 1.125 0 011.063.795 23.746 23.746 0 002.595 4.81c.26.415.592.78.98 1.078a.6.6 0 001.013-.3c.127-.322.203-.662.225-1.008a15.028 15.028 0 00-.063-3.537 1.474 1.474 0 00-1.255-1.35c-.375-.07-.318-.21-.138-.423a1.405 1.405 0 011.2-.6h4.422c.696.137.85.45.946 1.15l.004 4.911c-.008.27.136 1.076.624 1.255.39.127.649-.185.883-.433a15.224 15.224 0 002.489-3.825c.3-.604.557-1.232.807-1.86a.946.946 0 011-.685l4.255.004c.126-.003.251.005.375.023.717.122.914.43.692 1.13a10.62 10.62 0 01-1.692 2.935c-.71.981-1.468 1.93-2.175 2.917-.646.9-.595 1.357.208 2.14l.003.005z" fill="#436EAB"/></g><defs><clipPath id="clip0"><path fill="#fff" transform="translate(17 22)" d="M0 0h26.854v15.197H0z"/></clipPath></defs></svg>